# Blender v2.83.2 OBJ File: ''
# www.blender.org
mtllib arrow.mtl
o Cube
v -1.000000 0.061682 -1.000000
v -1.000000 -0.061682 -1.000000
v 1.000000 0.061682 -1.000000
v 1.000000 -0.061682 -1.000000
v -0.007449 0.061682 1.000000
v -0.007449 -0.061682 1.000000
v 0.000329 0.061682 1.000000
v 0.000329 -0.061682 1.000000
v 0.632217 -0.057396 -0.946088
v 0.632217 0.057396 -0.946088
v -0.632217 -0.057396 -0.946088
v -0.632217 0.057396 -0.946088
v 0.632217 -0.057396 -2.946088
v 0.632217 0.057396 -2.946088
v -0.632217 -0.057396 -2.946088
v -0.632217 0.057396 -2.946088
vt 0.625000 0.500000
vt 0.875000 0.500000
vt 0.875000 0.750000
vt 0.625000 0.750000
vt 0.375000 0.750000
vt 0.625000 1.000000
vt 0.375000 1.000000
vt 0.375000 0.000000
vt 0.625000 0.000000
vt 0.625000 0.250000
vt 0.375000 0.250000
vt 0.125000 0.500000
vt 0.375000 0.500000
vt 0.125000 0.750000
vt 0.375000 0.000000
vt 0.625000 0.000000
vt 0.625000 0.250000
vt 0.375000 0.250000
vt 0.625000 0.500000
vt 0.375000 0.500000
vt 0.625000 0.750000
vt 0.375000 0.750000
vt 0.625000 1.000000
vt 0.375000 1.000000
vt 0.125000 0.500000
vt 0.125000 0.750000
vt 0.875000 0.500000
vt 0.875000 0.750000
vn 0.0000 1.0000 0.0000
vn 0.8945 0.0000 0.4471
vn 0.0000 0.0000 1.0000
vn 0.0000 -1.0000 0.0000
vn -0.0000 0.0000 -1.0000
vn -0.8958 0.0000 0.4445
vn -1.0000 0.0000 0.0000
vn 1.0000 0.0000 -0.0000
usemtl Material
s off
f 1/1/1 5/2/1 7/3/1 3/4/1
f 4/5/2 3/4/2 7/6/2 8/7/2
f 8/8/3 7/9/3 5/10/3 6/11/3
f 6/12/4 2/13/4 4/5/4 8/14/4
f 2/13/5 1/1/5 3/4/5 4/5/5
f 6/11/6 5/10/6 1/1/6 2/13/6
f 9/15/3 10/16/3 12/17/3 11/18/3
f 11/18/7 12/17/7 16/19/7 15/20/7
f 15/20/5 16/19/5 14/21/5 13/22/5
f 13/22/8 14/21/8 10/23/8 9/24/8
f 11/25/4 15/20/4 13/22/4 9/26/4
f 16/19/1 12/27/1 10/28/1 14/21/1
