# Blender v2.83.2 OBJ File: ''
# www.blender.org
mtllib extendPathSign.mtl
o Cube
v -0.012109 0.000567 0.301484
v -0.012109 -0.000807 -0.301484
v 0.012109 0.000567 0.301484
v 0.012109 -0.000807 -0.301484
v 0.000000 0.301484 0.000000
v 0.012109 -0.301484 0.000000
v -0.012109 -0.301484 0.000000
vt 0.625000 0.750000
vt 0.625000 0.000000
vt 0.125000 0.625000
vt 0.375000 0.625000
vt 0.497596 0.150448
vt 0.914813 0.542489
vt 0.090900 0.544929
vt 0.625000 0.500000
vt 0.625000 0.250000
vt 0.495014 0.925424
vt 0.497625 0.151144
vt 0.916883 0.544118
vt 0.089594 0.544118
vt 0.750000 0.625000
vt 0.494387 0.924020
vt 0.625000 1.000000
vn 0.0000 -0.7081 -0.7062
vn -1.0000 0.0000 0.0000
vn 0.0000 -0.7064 0.7078
vn -0.9992 0.0401 -0.0001
vn 1.0000 0.0000 0.0000
vn 0.0000 0.7078 0.7064
vn 0.9992 0.0401 -0.0001
vn 0.0000 0.7062 -0.7081
usemtl Material.003
s off
f 2/1/1 4/2/1 6/3/1 7/4/1
f 7/5/2 1/6/2 2/7/2
f 1/8/3 7/4/3 6/3/3 3/9/3
f 1/6/4 5/10/4 2/7/4
f 6/11/5 4/12/5 3/13/5
f 3/9/6 5/14/6 1/8/6
f 4/12/7 5/15/7 3/13/7
f 2/1/8 5/14/8 4/16/8
